<?xml version="1.0" encoding="UTF-8"?>
<svg id="Capa_1" data-name="Capa 1" xmlns="http://www.w3.org/2000/svg" viewBox="0 0 385.64 86.62">
  <defs>
    <style>
      .cls-1 {
        fill: #e50914;
        stroke-width: 0px;
      }
    </style>
  </defs>
  <path class="cls-1" d="m4.97,81.49C1.66,78.36,0,73.29,0,66.37v-4.88c4.21-.51,8.42-1.01,12.63-1.49,0,1.9,0,3.81,0,5.71,0,5.41,2.3,7.78,6.91,7.14,2.27-.31,3.99-1.18,5.17-2.6,1.18-1.43,1.77-3.57,1.77-6.43,0-3.4-.8-6.31-2.42-8.75-1.62-2.44-4.61-5.29-8.99-8.62-5.51-4.26-9.36-8.33-11.55-12.11C1.34,30.58.24,26.18.24,21.22c0-6.75,1.71-12.03,5.12-15.72C8.78,1.79,13.74,0,20.25,0c6.42,0,11.28,1.77,14.57,5.2,3.28,3.44,4.92,8.33,4.9,14.76,0,1.1,0,2.19,0,3.29-4.23.17-8.45.34-12.67.52,0-1.39,0-2.78,0-4.17,0-2.78-.56-4.79-1.69-6.05-1.14-1.25-2.8-1.86-4.99-1.81-4.47.09-6.71,2.8-6.71,8.11,0,3.01.83,5.79,2.49,8.3,1.66,2.51,4.68,5.49,9.06,8.84,5.59,4.28,9.44,8.13,11.54,11.68,2.1,3.55,3.14,7.79,3.13,12.78-.02,6.5-1.75,11.67-5.21,15.64-3.45,3.96-8.46,6.47-15.01,7.5-6.47,1.02-11.36.04-14.67-3.1Z"/>
  <path class="cls-1" d="m58.15,12.11c-4.68.09-9.35.18-14.03.27.01-3.75.02-7.51.03-11.26,13.83-.03,27.65-.05,41.48-.07-.01,3.53-.03,7.06-.04,10.6-4.68.07-9.35.14-14.03.22-.08,21.59-.15,43.19-.23,64.78-4.47.48-8.94.99-13.4,1.52.07-22.02.14-44.05.22-66.07Z"/>
  <path class="cls-1" d="m96.86,1.05c6.06,0,12.12-.01,18.18-.02,4.56,23.93,9.12,47.55,13.7,70.93-4.48.25-8.97.53-13.45.84-.8-4.69-1.6-9.4-2.4-14.12,0,.07,0,.14,0,.21-5.09.29-10.18.61-15.27.95-.83,4.82-1.66,9.66-2.49,14.52-4.15.36-8.3.74-12.45,1.14,4.73-25.26,9.45-50.05,14.18-74.45Zm14.48,48.15c-1.95-11.77-3.91-23.62-5.86-35.53-.08,0-.16,0-.24,0-1.99,11.97-3.99,24.02-5.99,36.16,4.03-.22,8.06-.43,12.09-.63Z"/>
  <path class="cls-1" d="m135.42,1.01c6.63,0,13.26,0,19.89-.01,6.91,0,11.95,1.3,15.12,3.91,3.17,2.61,4.75,6.61,4.75,12.02,0,1.42,0,2.84,0,4.26,0,7.2-2.94,11.76-8.81,13.75,0,.07,0,.13,0,.2,3.26.76,5.56,2.35,6.9,4.78,1.34,2.43,2.01,5.69,2.01,9.78,0,4.06,0,8.12-.01,12.18,0,1.98.08,3.58.24,4.8.16,1.22.57,2.42,1.22,3.6-4.57.06-9.14.16-13.71.28-.49-1.11-.81-2.16-.97-3.15-.16-.99-.24-2.78-.24-5.36,0-4.24.01-8.48.02-12.72,0-3.18-.62-5.39-1.88-6.63-1.26-1.24-3.44-1.83-6.54-1.77-1.55.03-3.1.06-4.64.1-.02,10-.04,20-.07,30-4.49.17-8.97.38-13.46.6.06-23.53.13-47.07.19-70.6Zm18.24,29.92c2.69-.04,4.71-.63,6.05-1.78,1.35-1.14,2.02-3.04,2.02-5.69,0-1.79,0-3.58,0-5.37,0-2.52-.54-4.34-1.64-5.46-1.1-1.12-2.83-1.68-5.18-1.67-2.03.01-4.07.02-6.1.03-.01,6.67-.03,13.34-.04,20,1.63-.03,3.26-.05,4.89-.08Z"/>
  <path class="cls-1" d="m184.58.99c4.47,0,8.95,0,13.42,0,0,9.72,0,19.43,0,29.15,5.7-9.71,11.39-19.4,17.07-29.15,4.47,0,8.95,0,13.42,0-5.31,8.53-10.63,17-15.96,25.45,5.43,14.66,10.87,29.4,16.33,44.28-4.69-.15-9.39-.27-14.08-.36-3.81-10.38-7.61-20.71-11.4-31.01-1.79,2.92-3.58,5.85-5.38,8.77,0,7.35,0,14.69,0,22.04-4.49-.02-8.98-.01-13.47.02.01-23.06.02-46.13.03-69.19Z"/>
  <path class="cls-1" d="m235.09,1c11.83,0,23.67.02,35.5.03.01,3.42.02,6.84.03,10.26-7.36-.08-14.73-.15-22.09-.2.02,6.55.03,13.1.05,19.64,5.78.12,11.56.26,17.34.42.01,3.4.02,6.81.03,10.21-5.78-.21-11.56-.4-17.35-.56.03,10.24.05,20.48.08,30.73-4.49-.22-8.97-.41-13.46-.58-.05-23.31-.1-46.63-.15-69.94Z"/>
  <path class="cls-1" d="m277.06,1.03c4.47,0,8.95,0,13.42.02.08,20.95.15,41.9.23,62.85,7.37.55,14.73,1.16,22.09,1.83.01,3.59.03,7.18.04,10.78-11.83-1.26-23.67-2.32-35.52-3.21-.08-24.09-.17-48.18-.25-72.26Z"/>
  <path class="cls-1" d="m319.03,1.09c4.47,0,8.95.01,13.42.02.08,25.89.16,51.79.24,77.68-4.46-.55-8.93-1.08-13.4-1.58-.09-25.37-.18-50.75-.26-76.12Z"/>
  <path class="cls-1" d="m354.37,40.5c-4.94-13.47-9.89-26.58-14.85-39.38,4.72,0,9.43.02,14.15.03,3.03,8.67,6.05,17.47,9.07,26.42.08,0,.16,0,.24.01,3.07-8.65,6.15-17.44,9.23-26.39,4.23,0,8.46.02,12.69.03-4.92,13.88-9.82,27.35-14.71,40.47,5.17,14.53,10.32,29.49,15.44,44.94-4.68-.81-9.37-1.58-14.06-2.33-3.24-10.17-6.5-20.15-9.76-29.95-.08,0-.16-.02-.24-.02-3.31,9.15-6.61,18.14-9.91,26.99-4.21-.59-8.43-1.17-12.65-1.71,5.11-12.71,10.23-25.72,15.35-39.08Z"/>
</svg>